<svg width="197" height="500" viewBox="0 0 197 500" fill="none" xmlns="http://www.w3.org/2000/svg">
<g opacity="0.25">
<path d="M341.048 96.0283C341.048 69.8699 320.671 55.306 305.223 55.0846C285.32 54.8009 275.654 64.7524 275.654 64.7524V47.1238C275.654 36.3197 187.61 33.4764 187.61 33.4764C179.032 33.4764 99.5651 36.3197 99.5651 47.1238V64.7524C99.5651 64.7524 86.8655 53.663 69.9961 55.0846C54.6025 56.3833 34.1716 69.8699 34.1716 96.0283C34.1716 151.187 119.752 179.121 127.429 200.657C128.708 210.467 116.553 221.981 120.391 223.262C124.177 224.523 137.238 207.339 139.369 209.756C141.502 212.173 159.272 262.071 156.998 271.171C154.723 280.27 149.037 286.522 148.468 293.347C147.899 300.17 164.959 310.974 164.959 310.974C164.959 310.974 160.599 320.422 158.136 325.759C155.671 331.098 146.477 390.583 142.781 395.134C139.086 399.684 107.526 399.684 107.526 404.659V412.761H79.4737V458.253H294.988V412.761H267.693V404.659C267.693 399.686 236.134 399.686 232.438 395.134C228.742 390.585 219.55 331.098 217.087 325.759C214.622 320.422 210.262 310.974 210.262 310.974C210.262 310.974 227.32 300.17 226.753 293.347C226.184 286.522 220.497 280.268 218.223 271.171C215.949 262.071 233.718 212.173 235.852 209.756C237.983 207.339 251.045 224.523 254.83 223.262C258.668 221.981 246.513 210.467 247.792 200.657C255.468 179.121 341.048 151.187 341.048 96.0283ZM271.676 85.2226C271.676 85.2226 282.48 70.4389 300.107 70.4389C317.736 70.4389 326.835 82.9483 326.835 94.8903C326.835 106.832 318.923 139.814 264.283 163.696L271.676 85.2226ZM46.7761 94.8903C46.7761 82.9483 55.8749 70.4389 73.5018 70.4389C91.1304 70.4389 101.934 85.2226 101.934 85.2226L109.326 163.696C54.6878 139.814 46.7761 106.832 46.7761 94.8903Z" fill="#C1C1C1"/>
<g style="mix-blend-mode:color-burn">
<rect x="24" y="16" width="317" height="442" fill="#62BEFF"/>
</g>
</g>
</svg>
